<svg id="eBJs1neP72W1" xmlns="http://www.w3.org/2000/svg" xmlns:xlink="http://www.w3.org/1999/xlink" viewBox="0 0 260 260" shape-rendering="geometricPrecision" text-rendering="geometricPrecision"><g><ellipse rx="63.605571" ry="60.425291" transform="matrix(.792306 0 0 0.807287 130 130)" fill="#576278" stroke-width="0"/><ellipse style="mix-blend-mode:overlay" rx="63.605571" ry="60.425291" transform="matrix(.792306 0 0 0.807287 130 130)" fill="#4e545e" stroke-width="0"/><ellipse rx="63.605571" ry="60.425291" transform="matrix(.772774 0 0 0.690593 130 122.948731)" fill="#576278" stroke-width="0"/><ellipse rx="74.120049" ry="24.083171" transform="matrix(.92919-.402498 0.335738 0.775071 130 130)" fill="none" stroke="#d2dbed" stroke-width="5" stroke-dashoffset="346.25"/><rect width="114.013869" height="28.598163" rx="0" ry="0" transform="matrix(.686348-.24455 0.169098 0.474586 82.989762 120.410605)" fill="#576278" stroke-width="0"/><ellipse rx="63.605571" ry="60.425291" transform="matrix(-.015451 0.153785-.073171-.007351 84.124005 131.073728)" fill="#364159"/><ellipse rx="63.605571" ry="60.425291" transform="matrix(.268175 0.146862-.143244 0.261567 100.700396 128.801529)" fill="#576278" stroke="#576278"/><ellipse rx="2.129741" ry="6.353673" transform="matrix(1.795639-.484127 0.478648 1.775318 85.837743 131.505123)" fill="#576278" stroke-width="0"/><ellipse rx="7.92706" ry="8.937682" transform="matrix(-.084622 0.065637-.384071-.495164 168.053401 98.111076)" fill="#576278" stroke-width="0"/><ellipse rx="7.92706" ry="8.937682" transform="matrix(.044286-.037061-.303842-.363077 168.756935 97.916123)" fill="#576278" stroke-width="0"/><rect width="5.876992" height="9.979797" rx="0" ry="0" transform="matrix(.839213-.543803 0.543803 0.839213 159.825785 97.227209)" fill="#576278" stroke-width="0"/></g></svg>