<svg id="eilBpfaNOXm1" xmlns="http://www.w3.org/2000/svg" xmlns:xlink="http://www.w3.org/1999/xlink" viewBox="0 0 260 260" shape-rendering="geometricPrecision" text-rendering="geometricPrecision"><g transform="translate(.000004 0)"><g><ellipse rx="63.6056" ry="60.4253" transform="matrix(.792306 0 0 0.807287 130 130)" fill="#576278" stroke-width="0"/><ellipse style="mix-blend-mode:overlay" rx="63.6056" ry="60.4253" transform="matrix(.792306 0 0 0.807287 130 130)" fill="#4e545e" stroke-width="0"/><ellipse rx="63.6056" ry="60.4253" transform="matrix(.772774 0 0 0.690593 130 122.94873)" fill="#576278" stroke-width="0"/><ellipse rx="74.1201" ry="24.0832" transform="matrix(.92919-.402498 0.335738 0.775071 130 130)" fill="none" stroke="#d2dbed" stroke-width="5" stroke-dashoffset="346.25"/><rect width="114.014" height="28.5982" rx="0" ry="0" transform="matrix(.686348-.24455 0.169098 0.474586 82.989761 120.410606)" fill="#576278" stroke-width="0"/><ellipse rx="63.6056" ry="60.4253" transform="matrix(-.015451 0.153785-.073171-.007351 84.124008 131.07373)" fill="#364159"/><ellipse rx="63.6056" ry="60.4253" transform="matrix(.268175 0.146862-.143244 0.261567 100.700394 128.801529)" fill="#576278" stroke="#576278"/><ellipse rx="2.12974" ry="6.35367" transform="matrix(1.795639-.484127 0.478648 1.775318 85.837746 131.505127)" fill="#576278" stroke-width="0"/><ellipse rx="7.92706" ry="8.93768" transform="matrix(-.084622 0.065637-.384071-.495164 168.053406 98.111076)" fill="#576278" stroke-width="0"/><ellipse rx="7.92706" ry="8.93768" transform="matrix(.044286-.037061-.303842-.363077 168.756927 97.916122)" fill="#576278" stroke-width="0"/><rect width="5.87699" height="9.9798" rx="0" ry="0" transform="matrix(.839213-.543803 0.543803 0.839213 159.82579 97.227211)" fill="#576278" stroke-width="0"/></g><g transform="translate(2.953887 0.281154)"><rect width="23.0672" height="43.2338" rx="0" ry="0" transform="translate(167.718857 135.265579)" fill="#d2dbed" stroke-width="0"/><rect width="17.3853" height="29.8332" rx="0" ry="0" transform="translate(147.620026 148.666199)" fill="#d2dbed" stroke-width="0"/><rect width="18.2649" height="21.6169" rx="0" ry="0" transform="translate(158.250153 156.882492)" fill="#576278" stroke-width="0"/><rect width="4.61292" height="3.80932" rx="0" ry="0" transform="matrix(.650348 0 0 0.787543 172.156906 158.333206)" fill="#d2dbed" stroke-width="0"/><rect width="4.61292" height="3.80932" rx="0" ry="0" transform="matrix(.650348 0 0 0.787543 168.121506 158.333206)" fill="#d2dbed" stroke-width="0"/><rect width="4.61292" height="3.80932" rx="0" ry="0" transform="matrix(.650348 0 0 0.787543 172.156906 162.57132)" fill="#d2dbed" stroke-width="0"/><rect width="6.10891" height="5.00087" rx="0" ry="0" transform="matrix(.654781 0 0 0.799861 185.009186 136.930817)" fill="#576278" stroke-width="0"/><rect width="6.10891" height="5.00087" rx="0" ry="0" transform="matrix(.654781 0 0 0.799861 148.651581 149.5802)" fill="#364159" stroke-width="0"/><rect width="6.10891" height="5.00087" rx="0" ry="0" transform="matrix(.654781 0 0 0.799861 148.651581 154.882492)" fill="#364159" stroke-width="0"/><rect width="6.10891" height="5.00087" rx="0" ry="0" transform="matrix(.654781 0 0 0.799861 179.252441 136.855301)" fill="#576278" stroke-width="0"/><rect width="6.10891" height="5.00087" rx="0" ry="0" transform="matrix(.654781 0 0 0.799861 185.009186 142.606812)" fill="#576278" stroke-width="0"/></g></g></svg>